<?xml version="1.0" encoding="utf-8"?>
<!-- Generator: Adobe Illustrator 23.1.0, SVG Export Plug-In . SVG Version: 6.00 Build 0)  -->
<svg version="1.1" id="Layer_1" xmlns="http://www.w3.org/2000/svg" xmlns:xlink="http://www.w3.org/1999/xlink" x="0px" y="0px"
	 viewBox="0 0 595.3 841.9" style="enable-background:new 0 0 595.3 841.9;" xml:space="preserve">
<style type="text/css">
	.st0{fill:#737373;}
</style>
<path class="st0" d="M67.9,165.6l-2.4,5.9h0.6l0.8-2h2.6l0.8,2h0.6l-2.4-5.9H67.9z M67,169.1l1.1-2.8l1.1,2.8H67z M45.4,165.6h-1.8
	v6.1h0.6v-2.4h1.3c1.4,0,1.9-0.9,1.9-1.8C47.4,166.8,47,165.6,45.4,165.6z M45.4,168.6h-1.2v-2.5h1.2c1,0,1.4,0.6,1.4,1.3
	C46.7,168,46.4,168.6,45.4,168.6z M39.4,171.6H40v-5.4h2.3v-0.5h-2.9V171.6z M51.2,169.4l-1.9-3.8h-0.6l2.2,4.4l-0.7,1.6h0.6
	l2.5-5.9h-0.6L51.2,169.4z M60,171.6h0.6v-5.4h2.9v5.4h0.6v-5.9H60V171.6z M54.6,171.6h0.6v-5.4h2.9v5.4h0.6v-5.9h-4.1V171.6z
	 M85.1,171.6h0.6v-5.9h-0.6V171.6z M89,165.6h-0.7l-2.2,2.9l2.3,3.1H89l-2.3-3.1L89,165.6z M77.5,165.6h-1.8v6.1h0.6v-2.4h1.2
	c1.4,0,1.9-0.9,1.9-1.8C79.4,166.8,79.1,165.6,77.5,165.6z M77.4,168.6h-1.2v-2.5h1.2c1,0,1.4,0.6,1.4,1.3
	C78.8,168,78.4,168.6,77.4,168.6z M92.8,165.6l-2.4,5.9H91l2-5.2l2,5.2h0.6l-2.3-5.9H92.8z M80.7,171.6h3.1v-0.5h-2.5v-2.3h2.4v-0.5
	h-2.4v-2.2h2.5v-0.5h-3.1V171.6z M118.3,168.1H117v-2.4h-0.6v5.9h1.9c1.1,0,1.8-0.7,1.8-1.8C120.1,168.8,119.4,168.1,118.3,168.1z
	 M118.3,171.1H117v-2.5h1.3c1,0,1.3,0.8,1.3,1.3C119.6,170.3,119.3,171.1,118.3,171.1z M127,165.6h-0.7l-1.4,2.4l-1.5-2.4h-0.7
	l1.8,2.9l-1.9,3.1h0.7l1.6-2.6l1.6,2.6h0.7l-1.9-3.1L127,165.6z M120.7,171.6h0.6v-5.9h-0.6V171.6z M114.5,168.3h-2.9v-2.6H111v5.9
	h0.6v-2.8h2.9v2.8h0.6v-5.9h-0.6V168.3z M106.7,170.7l-2.1-5.1h-0.9v5.9h0.6v-5.3l2.2,5.3h0.4l2.2-5.3v5.3h0.6v-5.9h-0.9
	L106.7,170.7z M99.4,165.6l-2.4,5.9h0.6l0.8-2h2.6l0.8,2h0.6l-2.4-5.9H99.4z M98.5,169.1l1.1-2.8l1.1,2.8H98.5z M175.8,164.7
	c-0.6,0-0.8-0.3-0.8-0.6h-0.6c0.1,0.6,0.5,1.1,1.4,1.1c0.9,0,1.4-0.5,1.4-1.1h-0.6C176.6,164.4,176.3,164.7,175.8,164.7z
	 M150.9,171.6h0.6v-5.4h2.9v5.4h0.6v-5.9h-4.1V171.6z M158.5,165.6l-2.4,5.9h0.6l0.8-2h2.6l0.8,2h0.6l-2.4-5.9H158.5z M157.7,169.1
	l1.1-2.8l1.1,2.8H157.7z M168.4,170.8v-5.1h-0.6v5.9h0.6l3.4-5.1v5.1h0.6v-5.9h-0.6L168.4,170.8z M131.8,171.6h0.6v-5.9h-0.6V171.6z
	 M174.1,170.8v-5.1h-0.6v5.9h0.6l3.4-5.1v5.1h0.6v-5.9h-0.6L174.1,170.8z M166.2,168.3h-2.9v-2.6h-0.6v5.9h0.6v-2.8h2.9v2.8h0.6
	v-5.9h-0.6V168.3z M146.8,170.7l-2.1-5.1h-0.9v5.9h0.6v-5.3l2.1,5.3h0.5l2.1-5.3v5.3h0.6v-5.9h-0.9L146.8,170.7z M135.6,165.6H135
	l-2.1,2.9l2.2,3.1h0.7l-2.3-3.1L135.6,165.6z M139.8,165.5c-1.7,0-3,1.3-3,3.1c0,1.8,1.4,3.1,3,3.1c1.7,0,3-1.3,3-3.1
	C142.8,166.8,141.5,165.5,139.8,165.5z M139.8,171.1c-1.4,0-2.4-1-2.4-2.5c0-1.4,1-2.6,2.4-2.6c1.4,0,2.4,1,2.4,2.5
	C142.3,170.1,141.2,171.1,139.8,171.1z M143.8,122.1h35.8l-4.7-11.5h-35.8L143.8,122.1z M166.1,126.6h-43.6c0-0.4-0.1-0.8-0.1-1.3
	c0-13.2,10.8-23.6,23.9-24.3c2-0.2,6.3-0.2,8.1,0.1c-1.8-4.4-4.5-10.8-4.5-10.8s-2.8-0.2-3.6-0.2c-8.8,0-17,3.3-23.2,8.7
	c-0.9-2.2-3.5-8.5-3.5-8.5S116.8,90,116,90c-13.3,0-25,7.2-31.3,18.9C83,104.7,77.6,91,77.6,91h-9.8l-28.4,68.6H53l8.5-21.6h21.6
	c4.8,12.3,16.6,21.3,28.9,22.4c4,0.3,6.9,0.3,9.6-0.2l-5.3-11.9c-0.9,0-2,0-3.1-0.1c-12.2-1.3-21-10.6-21-22.9
	c0-13.2,10.7-23.9,23.9-23.9h4.4l-0.4,0.4c-5.6,6.3-9,14.5-9,23.5c0,0.4,0.1,0.8,0.1,1.2H97.3L102,138h11.5
	c5.3,13.6,18.3,22.7,32.9,22.7c10.3,0,20.1-4.5,26.8-12.5l1.3-1.6L166.1,126.6z M65.9,126.6l6.9-17.5l6.5,17.5H65.9z M146.3,149.2
	c-8.3,0-15.9-4.3-20.2-11.3h31.2c0.5,1.3,2.1,5.1,2.7,6.4C157,147.4,151.3,149.2,146.3,149.2z"/>
</svg>
